<?xml version="1.0" encoding="UTF-8" standalone="no"?>
<!DOCTYPE svg PUBLIC "-//W3C//DTD SVG 1.1//EN" "http://www.w3.org/Graphics/SVG/1.1/DTD/svg11.dtd">
<svg width="100%" height="100%" viewBox="0 0 1000 1000" version="1.1" xmlns="http://www.w3.org/2000/svg" xmlns:xlink="http://www.w3.org/1999/xlink" xml:space="preserve" xmlns:serif="http://www.serif.com/" style="fill-rule:evenodd;clip-rule:evenodd;stroke-linejoin:round;stroke-miterlimit:2;">
    <g id="html5" transform="matrix(1.25,0,0,1.25,0,0)">
        <rect x="0" y="0" width="800" height="800" style="fill:none;"/>
        <g transform="matrix(0.85,0,0,0.85,80,36.3248)">
            <g transform="matrix(0.941176,0,0,0.941176,0,52.3337)">
                <path d="M682.67,156.822L631.167,733.797L399.654,797.979L168.78,733.886L117.33,156.822L682.67,156.822Z" style="fill:rgb(228,77,38);fill-rule:nonzero;"/>
            </g>
            <g transform="matrix(0.941176,0,0,0.941176,0,52.3337)">
                <path d="M400,748.92L587.074,697.057L631.085,204.004L400,204.004L400,748.92Z" style="fill:rgb(241,101,41);fill-rule:nonzero;"/>
            </g>
            <g transform="matrix(0.941176,0,0,0.941176,0,52.3337)">
                <path d="M299.878,345.556L400,345.556L400,274.781L222.531,274.781L224.224,293.768L241.62,488.804L400,488.804L400,418.03L306.347,418.03L299.878,345.556ZM315.829,524.193L244.782,524.193L254.697,635.32L399.674,675.563L400,675.475L400,601.839L399.69,601.921L320.869,580.638L315.829,524.193Z" style="fill:rgb(235,235,235);fill-rule:nonzero;"/>
            </g>
            <g transform="matrix(0.941176,0,0,0.941176,0,52.3337)">
                <path d="M169.928,0L205.895,0L205.895,35.535L238.797,35.535L238.797,0L274.766,0L274.766,107.608L238.799,107.608L238.799,71.575L205.897,71.575L205.897,107.608L169.93,107.608L169.93,0L169.928,0ZM322.068,35.685L290.402,35.685L290.402,0L389.713,0L389.713,35.685L358.034,35.685L358.034,107.608L322.068,107.608L322.068,35.685ZM405.474,0L442.976,0L466.045,37.811L489.093,0L526.611,0L526.611,107.608L490.79,107.608L490.79,54.271L466.045,92.532L465.425,92.532L440.665,54.271L440.665,107.608L405.474,107.608L405.474,0ZM544.507,0L580.488,0L580.488,72.04L631.067,72.04L631.067,107.608L544.507,107.608L544.507,0Z" style="fill-rule:nonzero;"/>
            </g>
            <g transform="matrix(0.941176,0,0,0.941176,0,52.3337)">
                <path d="M399.756,488.804L486.907,488.804L478.69,580.594L399.754,601.899L399.754,675.53L544.847,635.32L545.91,623.362L562.544,437.035L564.27,418.03L399.756,418.03L399.756,488.804ZM399.756,345.383L399.756,345.556L570.71,345.556L572.129,329.649L575.355,293.768L577.046,274.781L399.756,274.781L399.756,345.385L399.756,345.383Z" style="fill:white;fill-rule:nonzero;"/>
            </g>
        </g>
    </g>
</svg>
