<?xml version="1.0" encoding="UTF-8" standalone="no"?>
<!DOCTYPE svg PUBLIC "-//W3C//DTD SVG 1.1//EN" "http://www.w3.org/Graphics/SVG/1.1/DTD/svg11.dtd">
<svg width="100%" height="100%" viewBox="0 0 1001 1000" version="1.1" xmlns="http://www.w3.org/2000/svg" xmlns:xlink="http://www.w3.org/1999/xlink" xml:space="preserve" xmlns:serif="http://www.serif.com/" style="fill-rule:evenodd;clip-rule:evenodd;stroke-linejoin:round;stroke-miterlimit:2;">
    <g transform="matrix(1,0,0,1,-2350,0)">
        <g id="js" transform="matrix(1.25,0,0,1.25,2350.43,0)">
            <rect x="0" y="0" width="800" height="800" style="fill:none;"/>
            <g transform="matrix(1.13997,0,0,1.13997,35.2096,35.2096)">
                <g transform="matrix(0.8,0,0,0.8,0,0)">
                    <rect x="50" y="50" width="700" height="700" style="fill:rgb(255,202,40);"/>
                </g>
                <g transform="matrix(0.8,0,0,0.8,0,0)">
                    <path d="M475,632.198L526.538,598.093C530.578,610.783 556.155,640.92 588.463,640.92C620.77,640.92 635.77,623.275 635.77,611.575C635.77,579.695 602.78,568.455 586.935,563.058C584.35,562.178 582.225,561.453 580.77,560.82C580.023,560.495 578.895,560.063 577.448,559.51C559.825,552.778 494.808,527.938 494.808,455.933C494.808,376.625 571.345,367.505 588.655,367.505C599.978,367.505 654.423,368.893 681.538,419.848L631.538,454.745C620.578,432.538 602.365,425.203 591.155,425.203C563.463,425.203 557.693,445.503 557.693,454.745C557.693,480.675 587.78,492.298 613.183,502.11C619.83,504.678 626.155,507.12 631.538,509.665C659.23,522.75 700,544.165 700,611.575C700,645.34 671.68,700.005 600.385,700.005C504.615,700.005 479.23,642.507 475,632.198Z" style="fill:rgb(62,62,62);fill-rule:nonzero;"/>
                </g>
                <g transform="matrix(0.8,0,0,0.8,0,0)">
                    <path d="M225,638.968L278.717,604.882C282.925,617.565 299.282,640.95 323.013,640.95C346.745,640.95 358.893,616.575 358.893,604.882L358.893,375.005L424.955,375.005L424.955,604.882C426.025,636.59 408.44,700.005 330.83,700.005C259.475,700.005 229.811,657.598 225,638.968Z" style="fill:rgb(62,62,62);fill-rule:nonzero;"/>
                </g>
            </g>
        </g>
    </g>
</svg>
