<?xml version="1.0" encoding="UTF-8" standalone="no"?>
<!DOCTYPE svg PUBLIC "-//W3C//DTD SVG 1.1//EN" "http://www.w3.org/Graphics/SVG/1.1/DTD/svg11.dtd">
<svg width="100%" height="100%" viewBox="0 0 1001 1000" version="1.1" xmlns="http://www.w3.org/2000/svg" xmlns:xlink="http://www.w3.org/1999/xlink" xml:space="preserve" xmlns:serif="http://www.serif.com/" style="fill-rule:evenodd;clip-rule:evenodd;stroke-linejoin:round;stroke-miterlimit:2;">
    <g transform="matrix(1,0,0,1,-3525,0)">
        <g id="react" transform="matrix(1.25,0,0,1.25,3525.65,0)">
            <rect x="0" y="0" width="800" height="800" style="fill:none;"/>
            <g transform="matrix(34.6947,0,0,34.6947,80.8084,116.033)">
                <g transform="matrix(0.8,0,0,0.8,0,0)">
                    <path d="M18.91,6.633C18.665,6.549 18.419,6.471 18.17,6.399C18.211,6.231 18.25,6.062 18.285,5.893C18.845,3.173 18.479,0.981 17.227,0.259C16.027,-0.433 14.065,0.289 12.083,2.014C11.888,2.184 11.697,2.359 11.511,2.539C11.386,2.419 11.26,2.302 11.131,2.187C9.053,0.344 6.97,-0.432 5.72,0.29C4.523,0.984 4.168,3.045 4.67,5.623C4.721,5.878 4.778,6.132 4.84,6.385C4.547,6.469 4.262,6.558 3.99,6.653C1.555,7.503 -0,8.833 -0,10.213C-0,11.638 1.67,13.068 4.206,13.933C4.411,14.004 4.619,14.069 4.828,14.129C4.76,14.4 4.7,14.674 4.648,14.949C4.166,17.482 4.542,19.494 5.738,20.184C6.972,20.896 9.044,20.164 11.063,18.4C11.223,18.261 11.383,18.114 11.543,17.958C11.744,18.153 11.951,18.343 12.163,18.526C14.119,20.208 16.049,20.886 17.243,20.196C18.478,19.481 18.879,17.32 18.358,14.691C18.318,14.491 18.272,14.286 18.22,14.077C18.365,14.034 18.508,13.99 18.648,13.944C21.285,13.07 23,11.657 23,10.213C23,8.827 21.395,7.488 18.91,6.633ZM12.73,2.756C14.428,1.278 16.015,0.696 16.74,1.112C17.51,1.556 17.808,3.347 17.324,5.696C17.293,5.849 17.258,6.002 17.221,6.153C16.208,5.923 15.18,5.761 14.145,5.667C13.552,4.815 12.902,4.004 12.2,3.24C12.372,3.075 12.548,2.913 12.728,2.756L12.73,2.756ZM6.79,11.39C6.999,11.793 7.216,12.189 7.443,12.58C7.674,12.98 7.915,13.374 8.165,13.763C7.453,13.686 6.745,13.573 6.045,13.423C6.249,12.766 6.499,12.083 6.791,11.391L6.79,11.39ZM6.79,9.08C6.504,8.402 6.26,7.735 6.06,7.09C6.715,6.943 7.415,6.823 8.144,6.732C7.9,7.112 7.665,7.499 7.439,7.892C7.212,8.283 6.996,8.679 6.789,9.08L6.79,9.08ZM7.312,10.236C7.615,9.606 7.941,8.988 8.292,8.382C8.64,7.775 9.011,7.184 9.406,6.607C10.09,6.555 10.791,6.527 11.5,6.527C12.212,6.527 12.914,6.555 13.598,6.607C13.988,7.184 14.357,7.774 14.706,8.377C15.057,8.981 15.387,9.596 15.698,10.222C15.391,10.854 15.062,11.475 14.71,12.084C14.361,12.689 13.993,13.283 13.606,13.864C12.924,13.914 12.219,13.938 11.5,13.938C10.784,13.938 10.088,13.916 9.418,13.872C9.021,13.292 8.646,12.698 8.294,12.089C7.943,11.482 7.616,10.864 7.312,10.235L7.312,10.236ZM15.562,12.576C15.793,12.174 16.015,11.767 16.228,11.356C16.52,12.017 16.778,12.692 17,13.38C16.292,13.539 15.576,13.661 14.855,13.745C15.098,13.36 15.333,12.97 15.561,12.575L15.562,12.576ZM16.218,9.081C16.006,8.678 15.786,8.28 15.558,7.885C15.333,7.497 15.099,7.114 14.858,6.735C15.591,6.828 16.294,6.951 16.955,7.102C16.743,7.774 16.497,8.435 16.218,9.082L16.218,9.081ZM11.51,3.945C11.989,4.467 12.44,5.012 12.864,5.579C11.959,5.536 11.053,5.536 10.146,5.579C10.593,4.989 11.051,4.441 11.511,3.945L11.51,3.945ZM6.214,1.14C6.984,0.695 8.684,1.33 10.478,2.923C10.593,3.025 10.708,3.131 10.823,3.241C10.117,4.005 9.462,4.816 8.863,5.667C7.831,5.76 6.806,5.919 5.795,6.144C5.736,5.909 5.684,5.673 5.637,5.434L5.637,5.436C5.204,3.226 5.491,1.56 6.214,1.142L6.214,1.14ZM5.09,13.183C4.9,13.128 4.711,13.069 4.524,13.006C3.549,12.699 2.64,12.216 1.84,11.58C1.378,11.262 1.067,10.767 0.983,10.212C0.983,9.375 2.231,8.307 4.313,7.582C4.575,7.49 4.839,7.407 5.105,7.332C5.414,8.324 5.788,9.294 6.225,10.236C5.783,11.192 5.404,12.176 5.091,13.182L5.09,13.183ZM10.416,17.663C9.664,18.353 8.791,18.899 7.841,19.273C7.336,19.515 6.752,19.538 6.229,19.335C5.504,18.915 5.202,17.301 5.613,15.135C5.662,14.878 5.718,14.624 5.781,14.371C6.803,14.59 7.839,14.74 8.881,14.819C9.485,15.675 10.144,16.49 10.855,17.259C10.712,17.397 10.566,17.531 10.417,17.662L10.416,17.663ZM11.538,16.551C11.072,16.049 10.608,15.493 10.154,14.895C10.594,14.912 11.043,14.921 11.5,14.921C11.969,14.921 12.431,14.911 12.888,14.891C12.467,15.467 12.016,16.021 11.538,16.551ZM17.505,17.918C17.462,18.477 17.189,18.995 16.752,19.346C16.027,19.766 14.477,19.22 12.805,17.782C12.614,17.618 12.421,17.443 12.227,17.256C12.924,16.484 13.568,15.666 14.155,14.808C15.203,14.72 16.244,14.559 17.27,14.328C17.317,14.517 17.358,14.703 17.394,14.884C17.617,15.88 17.654,16.909 17.504,17.919L17.505,17.918ZM18.339,13.011C18.212,13.053 18.083,13.093 17.951,13.131C17.63,12.135 17.241,11.161 16.787,10.218C17.224,9.287 17.598,8.329 17.907,7.348C18.141,7.415 18.37,7.488 18.59,7.563C20.72,8.295 22.018,9.379 22.018,10.213C22.018,11.103 20.615,12.257 18.338,13.011L18.339,13.011Z" style="fill:rgb(97,218,251);fill-rule:nonzero;"/>
                </g>
                <g transform="matrix(0.8,0,0,0.8,0,0)">
                    <path d="M11.5,8.159C12.627,8.159 13.554,9.086 13.554,10.213C13.554,11.34 12.627,12.267 11.5,12.267C10.373,12.267 9.446,11.34 9.446,10.213C9.446,10.212 9.446,10.212 9.446,10.211C9.448,9.085 10.374,8.16 11.5,8.16" style="fill:rgb(97,218,251);fill-rule:nonzero;"/>
                </g>
            </g>
        </g>
    </g>
</svg>
